<svg version="1.1" id="Layer_1" xmlns="http://www.w3.org/2000/svg" xmlns:xlink="http://www.w3.org/1999/xlink" x="0px" y="0px"
	 width="100%" viewBox="0 0 83 83" enable-background="new 0 0 83 83" xml:space="preserve">
<path fill="#219CEE" opacity="1.000000" stroke="none" 
	d="
M1.220084,77.304108 
	C1.000000,54.312439 1.000000,31.624876 1.000000,8.468657 
	C1.423000,4.148925 3.160709,1.577305 7.695869,1.216074 
	C30.687561,1.000000 53.375122,1.000000 76.531342,1.000000 
	C80.159409,2.135885 83.888580,2.687192 83.781982,7.698830 
	C84.000000,30.687561 84.000000,53.375122 84.000000,76.531342 
	C83.018059,80.308533 82.467964,84.038101 77.301590,83.780457 
	C54.312439,84.000000 31.624876,84.000000 8.468657,84.000000 
	C4.379052,83.341454 1.088545,82.343788 1.220084,77.304108 
z"/>
<path fill="#E6F1FC" opacity="1.000000" stroke="none" 
	d="
M84.000000,7.502095 
	C83.076828,4.565960 80.036484,3.283093 77.221390,1.273200 
	C77.321091,1.000000 77.654335,1.057003 77.961456,0.991502 
	C83.060333,-0.095970 85.157486,1.815888 84.000000,7.502095 
z"/>
<path fill="#E8F2FC" opacity="1.000000" stroke="none" 
	d="
M7.502095,1.000000 
	C5.795060,3.228002 2.069191,3.753912 1.000500,7.627032 
	C1.000000,7.678909 1.057003,7.345660 0.991501,7.038539 
	C-0.095970,1.939664 1.815889,-0.157486 7.502095,1.000000 
z"/>
<path fill="#E9F3FC" opacity="1.000000" stroke="none" 
	d="
M77.497902,84.000000 
	C80.594353,83.339577 81.850128,80.052521 83.999496,77.384285 
	C84.000000,77.321091 83.942993,77.654343 84.008492,77.961464 
	C85.095978,83.060341 83.184105,85.157486 77.497902,84.000000 
z"/>
<path fill="#E8F2FC" opacity="1.000000" stroke="none" 
	d="
M1.000000,77.497902 
	C2.044599,80.267220 4.011707,82.649841 7.698836,83.835968 
	C7.678909,84.000000 7.345659,83.942993 7.038539,84.008499 
	C1.939654,85.095978 -0.157481,83.184097 1.000000,77.497902 
z"/>
<path fill="#F8FBFE" opacity="1.000000" stroke="none" 
	d="
M52.071251,59.300270 
	C51.500607,61.495827 51.261044,63.417397 51.026264,65.339554 
	C50.429169,70.227989 47.592449,71.354836 40.606949,69.138496 
	C38.511490,65.385452 39.911037,61.641323 39.910069,57.668900 
	C42.316040,47.429512 44.035114,37.441669 47.649063,27.929382 
	C48.458336,25.799284 47.721085,24.534616 45.408691,25.079695 
	C41.431351,26.017237 37.147606,25.632744 33.458290,27.792370 
	C32.504433,28.350731 31.560715,29.555275 30.557039,28.030684 
	C29.839909,26.941355 30.215305,25.833775 30.988888,24.810144 
	C34.701202,19.897894 39.844189,17.402262 45.680347,16.107857 
	C46.973087,15.821138 48.322281,15.788939 50.006649,15.459415 
	C50.479088,14.763106 50.785423,14.526824 51.445599,14.945174 
	C57.440975,16.254950 63.369022,15.699375 69.262177,15.992381 
	C71.437218,16.100523 74.449348,14.762095 75.592621,17.089228 
	C76.597008,19.133667 74.615227,21.332161 73.115097,23.497784 
	C69.335007,25.308426 65.567329,24.161581 61.451141,24.254837 
	C60.258762,23.992483 59.497669,23.919069 58.362335,23.934971 
	C57.741295,24.271574 57.496723,24.521044 57.036510,24.918417 
	C54.649746,34.011845 53.387508,43.116405 52.139359,52.631752 
	C52.790874,55.016594 52.448807,57.027538 52.071251,59.300270 
z"/>
<path fill="#F9FCFE" opacity="1.000000" stroke="none" 
	d="
M22.355438,47.559883 
	C21.523050,53.686802 20.720625,59.384052 20.105766,65.101479 
	C19.868374,67.308937 20.171597,69.526291 16.861414,69.474525 
	C13.673182,69.424675 10.704814,69.043900 9.696774,65.463898 
	C9.212564,63.744251 9.031589,61.818764 9.233366,60.045681 
	C10.704958,47.114399 13.905188,34.583378 18.307037,22.350801 
	C18.642916,21.417408 19.057873,20.492496 19.573700,19.647678 
	C20.967335,17.365206 22.524357,14.438859 25.549883,15.401188 
	C28.726891,16.411697 28.134962,19.710112 27.616074,22.322454 
	C25.970161,30.608829 24.189100,38.868362 22.355438,47.559883 
z"/>
<path fill="#0295EC" opacity="1.000000" stroke="none" 
	d="
M39.962742,57.345825 
	C40.231270,60.890602 40.231384,64.455147 40.273018,68.468094 
	C38.188850,65.169228 38.639046,61.283657 39.962742,57.345825 
z"/>
<path fill="#0296ED" opacity="1.000000" stroke="none" 
	d="
M61.366810,24.272213 
	C64.693695,24.015690 68.367523,23.965485 72.495201,23.859013 
	C69.314369,25.863739 65.508614,25.080595 61.366810,24.272213 
z"/>
<path fill="#0299ED" opacity="1.000000" stroke="none" 
	d="
M51.974442,15.183388 
	C51.323544,15.439402 51.052216,15.495321 50.563065,15.360466 
	C52.329620,12.597771 54.824013,14.545358 57.107311,14.687706 
	C55.530403,14.822766 53.953495,14.957827 51.974442,15.183388 
z"/>
<path fill="#0697ED" opacity="1.000000" stroke="none" 
	d="
M51.862984,59.766857 
	C51.812702,57.665035 51.887413,55.756077 52.063377,53.445801 
	C53.385105,55.329456 53.111534,57.743164 52.757118,60.158379 
	C52.748280,60.218613 52.465839,60.299404 52.339596,60.265167 
	C52.204700,60.228592 52.103748,60.066833 51.862984,59.766857 
z"/>
<path fill="#0296ED" opacity="1.000000" stroke="none" 
	d="
M57.027813,24.906645 
	C56.998821,24.723549 57.178711,24.382677 57.673347,24.033047 
	C57.737625,24.265814 57.487160,24.507341 57.027813,24.906645 
z"/>
</svg>